# xmcd CD database file
#
# Track frame offsets:
#	150
#	18037
#	38175
#	56025
#
# Disc length: 1011 seconds
#
# Revision: 1
# Processed by: cddbd v1.4PL0 Copyright (c) Steve Scherf et al.
# Submitted via: CDex 1.40Beta9
#
DISCID=2803f104
DTITLE=The gardens - Future's Memories
DYEAR=1997
DGENRE=Pop
TTITLE0=Future's Memories
TTITLE1=Bye Bye Blue
TTITLE2=Future's Memories [Instrumental]
TTITLE3=Bye Bye Blue [Instrumental]
EXTD=YEAR: 1997 ID3G: 13
EXTT0=
EXTT1=
EXTT2=
EXTT3=
PLAYORDER=
